<svg width="132" height="44" viewBox="0 0 132 44" fill="none" xmlns="http://www.w3.org/2000/svg"><path fill-rule="evenodd" clip-rule="evenodd" d="M64.75 10.106c36.52-4.303 66.637-.5 67.238 8.304.7 8.906-28.317 19.512-64.737 23.814C30.73 46.427.613 42.724.012 33.82c-.7-8.805 28.316-19.51 64.737-23.713z" fill="#1B465E"/><path d="M34.032 6.304h-7.904l-5.704 5.503L22.526 0h-6.504L12.02 22.913h6.503l.8-4.302 2.802-2.302 2.201 6.704h7.205l-4.503-10.806 7.004-5.903zm16.81 1.3c-.7-.7-1.601-1.1-2.702-1.4-1.1-.2-2.701-.3-4.602-.3-1.201 0-2.302.1-3.302.3-1.001.2-1.901.4-2.502.8-.9.5-1.6 1-2.201 1.6-.6.601-1 1.402-1.4 2.502l5.902.6c.3-.8.801-1.2 1.201-1.5.5-.3 1.401-.5 2.502-.5.8 0 1.4.1 1.6.5.2.4.3.9.2 1.6-.8.3-1.6.501-2.4.801-.801.3-2.302.5-4.803 1-2.002.401-3.602 1.001-4.403 1.802-.9.8-1.4 1.8-1.6 3.101-.201 1.401.1 2.502 1 3.402.9.901 2.301 1.401 4.302 1.401 1.501 0 2.902-.2 4.002-.7.9-.3 1.801-1 2.802-1.701v1c.1.2.1.5.3 1.001h6.004c-.2-.7-.3-1.2-.3-1.7 0-.501.1-1.002.2-1.802l1.3-7.304c.1-.8.1-1.601 0-2.502-.3-.9-.6-1.5-1.1-2zm-6.004 8.505c-.1.8-.4 1.401-.8 1.901-.3.5-.8.9-1.501 1.2-.7.301-1.4.501-2.001.501-.6 0-1.2-.1-1.401-.5-.2-.4-.4-.8-.3-1.2.1-.401.3-.801.8-1.201s1.301-.7 2.702-1.001c1-.2 2-.5 2.901-.8l-.4 1.1zM67.651 5.903c-1.3 0-2.501.3-3.402.7-1 .501-2 1.201-3.101 2.402l.5-2.701h-5.904l-2.901 16.609h6.403l1.401-7.905c.3-1.5.7-2.5 1.301-3.101.6-.6 1.2-.9 2.001-.9.7 0 1.2.2 1.501.7.3.4.3 1.2.2 2.2l-1.6 9.106h6.403l1.8-10.606c.401-2.201.201-3.802-.6-4.803-.9-1.1-2.3-1.7-4.002-1.7zM88.263 0l-1.4 7.904c-.501-.7-1.201-1.2-1.902-1.5-.7-.3-1.6-.5-2.601-.5-2.001 0-3.803.8-5.403 2.2-1.601 1.401-2.602 3.603-3.102 6.304-.4 2.502-.2 4.603.7 6.304.9 1.7 2.502 2.601 4.703 2.601 1.2 0 2.201-.3 3.202-.8.8-.3 1.6-1.1 2.701-2.101l-.4 2.501h5.903L94.667 0h-6.404zm-2.602 14.608c-.3 1.401-.7 2.502-1.4 3.102-.7.6-1.401 1-2.202 1-.8 0-1.4-.3-1.8-1-.4-.6-.5-1.6-.3-3.002.3-1.4.7-2.501 1.3-3.101.6-.6 1.3-.9 2.001-.9.8 0 1.501.3 1.901 1 .7.6.7 1.6.5 2.901zm27.316-2.501c.1-.8.1-1.601-.1-2.502-.1-.9-.5-1.5-1.001-2-.7-.701-1.601-1.101-2.701-1.401-1.101-.2-2.702-.3-4.603-.3-1.2 0-2.301.1-3.302.3-1 .2-1.9.4-2.501.8-.9.5-1.601 1-2.201 1.6-.6.601-1 1.402-1.401 2.502l5.903.6c.4-.8.801-1.2 1.201-1.5.6-.3 1.401-.5 2.501-.5.801 0 1.401.1 1.601.5.2.4.3.9.2 1.6-.8.3-1.601.501-2.401.801-.8.3-2.301.5-4.803 1-2 .401-3.602 1.001-4.402 1.802-.9.8-1.401 1.8-1.601 3.101-.2 1.401.1 2.502 1 3.402.9.901 2.302 1.401 4.303 1.401 1.501 0 2.902-.2 4.002-.7.901-.3 1.801-1 2.802-1.701v1c.1.2.1.5.3 1.001h5.903c-.2-.7-.3-1.2-.3-1.7 0-.501.1-1.002.2-1.802l1.401-7.304zm-6.904 4.002c-.1.8-.4 1.401-.8 1.901-.301.5-.801.9-1.501 1.2-.701.301-1.401.501-2.001.501-.701 0-1.201-.1-1.401-.5-.2-.4-.4-.8-.3-1.2.1-.401.3-.801.8-1.201s1.301-.7 2.702-1.001c1-.2 2.001-.5 2.901-.8l-.4 1.1z" fill="#36B68A"/><path d="M16.822 29.617c0 .6-.2 1.2-.7 1.5-.5.3-1.1.5-1.901.5-.8 0-1.4-.1-2.001-.4v-1.4c.5.2.9.3 1.2.5.3.1.6.1.9.1.301 0 .501-.1.801-.2.2-.1.3-.3.3-.5 0-.1-.1-.3-.1-.3l-.3-.3c-.1-.1-.5-.3-.9-.5s-.8-.401-1-.601c-.2-.2-.401-.4-.501-.7-.1-.3-.2-.5-.2-.901 0-.6.2-1.1.6-1.5.4-.301 1-.501 1.801-.501.3 0 .7.1 1 .1.301.1.701.2 1.001.3l-.5 1.2c-.4-.1-.7-.3-1-.3-.3 0-.5-.1-.801-.1-.3 0-.5.1-.7.2-.1.1-.2.3-.2.5 0 .101 0 .301.1.301s.1.2.3.3c.1.1.5.3 1 .5.7.3 1.1.6 1.401 1.001.3.4.4.8.4 1.2zm14.508-1.501c0 1.2-.3 2.001-.9 2.701-.6.6-1.401 1.001-2.502 1.001-1.1 0-1.9-.3-2.501-1-.5-.6-.9-1.501-.9-2.702 0-1.2.3-2.001.9-2.702.5-.6 1.4-1 2.501-1 1.1 0 1.901.3 2.502 1 .4.6.9 1.501.9 2.702zm-5.203 0c0 .8.1 1.4.5 1.801.3.4.801.6 1.401.6 1.201 0 1.801-.8 1.801-2.401 0-1.601-.6-2.401-1.8-2.401-.601 0-1.001.2-1.401.6-.4.4-.5 1-.5 1.8zm14.709 3.502h-1.501v-7.004h4.002v1.2h-2.601v1.802h2.401v1.2h-2.401l.1 2.802zm13.508 0h-1.5v-5.803h-1.902v-1.201h5.303v1.2h-1.9v5.804zm16.509 0h-1.7l-1.001-3.702c-.1-.1-.1-.4-.2-.8s-.1-.701-.1-.801c0 .2-.1.5-.1.8-.1.4-.1.7-.2.8l-1.001 3.703H64.85l-1.801-7.004h1.5l.901 3.802c.1.7.3 1.3.3 1.801 0-.2.1-.5.1-.8.1-.4.1-.7.2-.9l1.001-4.003h1.4l1.002 4.002c.1.2.1.5.1.8.1.3.1.701.1 1.001 0-.3.1-.5.1-1 .1-.4.1-.7.2-.9l.9-3.803h1.501l-1.5 7.004zm13.708 0l-.5-1.701H81.46l-.5 1.701h-1.602l2.502-7.104h1.8l2.502 7.104h-1.6zm-.9-2.902c-.5-1.5-.8-2.401-.8-2.601-.1-.2-.1-.3-.1-.5-.1.4-.4 1.4-.901 3.101h1.8zm11.606.2v2.702h-1.5v-7.004h2c1.001 0 1.602.2 2.102.5.5.3.7.9.7 1.601 0 .4-.1.8-.3 1.1-.2.301-.5.501-1 .801 1.1 1.601 1.8 2.602 2 3.102h-1.6l-1.701-2.701c0-.1-.7-.1-.7-.1zm0-1.2h.5c.501 0 .801-.1 1.001-.2.2-.1.3-.4.3-.8 0-.301-.1-.501-.3-.701-.2-.1-.6-.2-1.1-.2h-.5l.1 1.9zm15.809 3.902h-4.003v-7.004h4.003v1.2h-2.602v1.602h2.401v1.2h-2.401v1.801h2.602v1.201z" fill="#fff"/></svg>