<svg xmlns="http://www.w3.org/2000/svg" version="1.1" xmlns:xlink="http://www.w3.org/1999/xlink" xmlns:svgjs="http://svgjs.dev/svgjs" width="2000" height="2250" viewBox="0 0 2000 2250"><g transform="matrix(1,0,0,1,0.0022017081398644223,0)"><svg viewBox="0 0 320 360" data-background-color="#ffffff" preserveAspectRatio="xMidYMid meet" height="2250" width="2000" xmlns="http://www.w3.org/2000/svg" xmlns:xlink="http://www.w3.org/1999/xlink"><g id="tight-bounds" transform="matrix(1,0,0,1,0.00010353528136874957,0)"><svg viewBox="0 0 320 360" height="360" width="320"><g><svg></svg></g><g><svg viewBox="0 0 320 360" height="360" width="320"><g><path xmlns="http://www.w3.org/2000/svg" d="M307.925 179.999l6.575-11.387c11.322-19.607 4.604-44.679-15.003-56.001l-11.387-6.575v-13.151c0-22.639-18.354-40.994-40.994-40.994h-13.151l-6.575-11.387c-11.322-19.607-36.393-26.325-56.001-15.003l-11.39 6.572-11.387-6.576c-19.607-11.318-44.679-4.6-56.001 15.007l-6.575 11.387h-13.151c-22.639 0-40.994 18.354-40.994 40.994v13.151l-11.387 6.575c-19.607 11.322-26.325 36.393-15.003 56.001l6.572 11.387-6.576 11.387c-11.318 19.607-4.6 44.679 15.007 56l11.387 6.576v13.15c0 22.639 18.354 40.994 40.994 40.994h13.151l6.575 11.387c11.322 19.607 36.393 26.325 56.001 15.003l11.387-6.571 11.387 6.575c19.607 11.322 44.679 4.604 56-15.003l6.576-11.387h13.15c22.639 0 40.994-18.354 40.994-40.994v-13.151l11.387-6.575c19.607-11.322 26.325-36.393 15.003-56.001zM297.702 115.716c8.655 4.996 14.842 13.062 17.428 22.713 2.586 9.65 1.261 19.734-3.735 28.384l-5.538 9.596-17.747-30.74v-35.494zM251.155 271.155l-57.791 33.365h-66.731l-57.791-33.365-33.365-57.791v-66.731l33.365-57.791 57.791-33.365h66.731l57.791 33.365 33.365 57.791v66.731zM284.517 220.539v31.351l-27.151 15.676zM247.566 277.366l-15.676 27.151h-31.351zM187.15 308.106l-27.151 15.676-27.151-15.676zM119.459 304.517h-31.352l-15.676-27.151zM62.632 267.566l-27.151-15.676v-31.351zM31.891 207.15l-15.675-27.151 15.675-27.151zM35.481 139.459v-31.352l27.151-15.676zM72.431 82.632l15.676-27.151h31.352zM132.848 51.891l27.151-15.675 27.151 15.675zM200.539 55.481h31.351l15.676 27.151zM257.366 92.431l27.151 15.676v31.352zM288.106 152.848l15.676 27.151-15.676 27.151zM247.112 55.481c9.992 0 19.384 3.889 26.452 10.956 7.063 7.063 10.956 16.46 10.957 26.452v11.079l-30.741-17.747-17.747-30.74zM173.18 28.606c8.655-4.996 18.735-6.322 28.385-3.735 9.65 2.586 17.716 8.777 22.712 17.428l5.538 9.596h-35.494l-30.741-17.747zM95.716 42.295c4.996-8.655 13.062-14.842 22.713-17.428 9.65-2.586 19.734-1.261 28.384 3.736l9.596 5.537-30.74 17.747h-35.494zM35.481 92.885c0-9.992 3.889-19.384 10.956-26.452 7.063-7.063 16.46-10.956 26.452-10.956h11.079l-17.747 30.74-30.74 17.747zM8.606 166.817c-4.996-8.655-6.322-18.735-3.735-28.385 2.586-9.65 8.777-17.716 17.428-22.712l9.596-5.538v35.495l-17.747 30.74zM22.295 244.281c-8.655-4.996-14.842-13.062-17.428-22.712-2.586-9.65-1.261-19.734 3.736-28.385l5.537-9.596 17.747 30.74v35.495zM72.885 304.517c-9.992 0-19.384-3.889-26.452-10.957-7.063-7.063-10.956-16.46-10.956-26.451v-11.08l30.74 17.747 17.747 30.741zM146.817 331.391c-8.655 4.996-18.735 6.322-28.385 3.735-9.65-2.586-17.716-8.777-22.712-17.428l-5.538-9.596h35.495l30.74 17.747zM224.281 317.702c-4.996 8.655-13.062 14.842-22.712 17.428-9.65 2.586-19.734 1.261-28.385-3.735l-9.596-5.538 30.74-17.747h35.495zM284.517 267.112c0 9.992-3.889 19.384-10.957 26.452-7.063 7.063-16.46 10.956-26.451 10.957h-11.08l17.747-30.741 30.741-17.747zM315.13 221.565c-2.586 9.65-8.777 17.716-17.428 22.712l-9.596 5.538v-35.494l17.747-30.741 5.538 9.596c4.996 8.658 6.326 18.739 3.739 28.389z" fill="#c56e33" fill-rule="nonzero" stroke="none" stroke-width="1" stroke-linecap="butt" stroke-linejoin="miter" stroke-miterlimit="10" stroke-dasharray="" stroke-dashoffset="0" font-family="none" font-weight="none" font-size="none" text-anchor="none" style="mix-blend-mode: normal" data-fill-palette-color="tertiary"></path></g><g transform="matrix(1,0,0,1,64,115.79654545454547)"><svg viewBox="0 0 192 128.40690909090907" height="128.40690909090907" width="192"><g><svg viewBox="0 0 192 128.40690909090907" height="128.40690909090907" width="192"><g><svg viewBox="0 0 192 128.40690909090907" height="128.40690909090907" width="192"><g id="textblocktransform"><svg viewBox="0 0 192 128.40690909090907" height="128.40690909090907" width="192" id="textblock"><g><svg viewBox="0 0 192 128.40690909090907" height="128.40690909090907" width="192"><path d="M191.55 27.541C190.648 14.212 188.075 10.507 188.075 10.507 180.177-3.222 170.321-0.263 161.466 1.71 145.832 1.79 130.262 4.722 114.664 6.295 81.926 6.535 48.907 2.59 16.331 12.32 13.271 15.305-3.175 12.906 0.544 29.247 1.519 36.044 5.076 43.588 4.967 49.826 5.455 50.919 6.132 48.413 6.42 49.986 7.431 54.225 9.083 52.225 10.437 54.731 8.551 61.422 9.905 66.993 11.195 72.831 8.921 74.351 6.005 73.631 4.696 78.669 4.561 82.321 3.83 81.628 3.027 81.468 2.44 81.362 1.257 81.762 1.456 82.908 2.133 86.826-0.774 89.092 1.05 92.931-0.205 97.089 1.916 100.688 1.627 105.193 1.591 106.1 1.79 106.873 2.106 107.086 3.505 108.232 1.465 110.471 1.682 112.897 16.033 129.478 31.604 118.015 46.308 125.639 50.126 120.308 47.256 127.532 48.781 126.412 49.972 125.106 50.839 130.518 52.184 127.452 52.392 126.572 52.076 124.493 52.816 124.893 53.204 125.106 53.547 125.053 53.601 123.827 53.682 121.987 52.969 123.133 52.78 122.174 54.829 117.322 54.323 128.865 56.246 128.385 56.156 126.972 55.596 124.946 56.742 125.213 57.88 123.187 57.916 121.507 58.927 126.066 58.963 127.052 59.143 127.745 59.432 128.225 62.591 123.267 65.732 129.984 69.045 127.745 71.076 125.293 73.026 129.078 75.084 128.145 75.806 127.399 76.537 126.066 77.232 128.305 85.744 128.785 94.815 126.786 102.885 128.385 124.449 125.399 147.493 129.611 170.23 125.666 175.592 124.146 181.161 121.987 186.387 120.255 186.387 120.255 190.621 115.51 190.621 94.184S191.523 75.524 191.659 58.543C191.794 41.563 192.426 40.869 191.523 27.541Z" opacity="1" fill="#c56e33" data-fill-palette-color="tertiary"></path><g transform="matrix(1,0,0,1,27.072000000000003,19.1)"><svg width="137.856" viewBox="3.6500000953674316 -34.150001525878906 52.79999923706055 34.55000305175781" height="90.20690909090906" data-palette-color="#ffffff"><path d="M13.2-29.4L13.2-29.4 8.8-29.4 8.8-17.1 13.45-17.1Q16.65-17.1 18.3-18.78 19.95-20.45 19.95-23.25L19.95-23.25Q19.95-29.4 13.2-29.4ZM8.8-12.8L8.8 0 3.65 0 3.65-33.7 13.05-33.7Q18.85-33.7 22-30.88 25.15-28.05 25.15-23.2L25.15-23.2Q25.1-19.65 23.35-17.18 21.6-14.7 18.5-13.6L18.5-13.6 27.3 0 21.15 0 13.25-12.8 8.8-12.8ZM56.45-6.85L56.45-1.65Q53.35 0.4 47.85 0.4L47.85 0.4Q40.3 0.4 35.5-4.3 30.7-9 30.7-16.9L30.7-16.9Q30.7-24.55 35.52-29.35 40.35-34.15 47.75-34.15L47.75-34.15Q53.15-34.15 56.4-32.3L56.4-32.3 56.4-27.25Q54.2-28.45 52.42-28.93 50.65-29.4 47.9-29.4L47.9-29.4Q42.85-29.4 39.47-25.98 36.1-22.55 36.1-16.9L36.1-16.9Q36.1-11.15 39.45-7.75 42.8-4.35 48.3-4.35L48.3-4.35Q53.15-4.35 56.45-6.85L56.45-6.85Z" opacity="1" transform="matrix(1,0,0,1,0,0)" fill="#ffffff" class="undefined-text-0" data-fill-palette-color="quaternary" id="text-0"></path></svg></g></svg></g></svg></g></svg></g><g></g></svg></g></svg></g></svg></g><defs></defs></svg><rect width="320" height="360" fill="none" stroke="none" visibility="hidden"></rect></g></svg></g></svg>